<svg width="119" height="120" viewBox="0 0 119 120" fill="none" xmlns="http://www.w3.org/2000/svg">
<g filter="url(#filter0_d_2006_2233)">
<path d="M75.8511 68.3982C79.5866 82.3371 68.0254 92.2608 55.0861 88.0233C41.1473 84.2878 26.8195 69.96 23.084 56.0211C18.9896 42.0685 28.6435 31.6253 42.5823 35.3608C56.5212 39.0963 72.1156 54.4594 75.8511 68.3982Z" fill="#9DB326"/>
</g>
<circle cx="26.1291" cy="26.1291" r="25.9655" transform="matrix(0.965916 0.258856 0.258856 0.965916 18.4756 28.623)" fill="#CFFF33" stroke="url(#paint0_linear_2006_2233)" stroke-width="0.327109"/>
<g filter="url(#filter1_d_2006_2233)">
<path d="M43.3527 57.8643C35.8611 37.6226 49.6857 33.1925 57.5345 33.5076C61.2413 37.8447 70.6087 48.6889 78.4245 57.3691C88.1942 68.2193 72.3916 84.9223 65.8635 82.0859C59.3353 79.2496 59.5604 80.5552 43.3527 57.8643Z" fill="#C1ED45"/>
<path d="M43.3527 57.8643C35.8611 37.6226 49.6857 33.1925 57.5345 33.5076C61.2413 37.8447 70.6087 48.6889 78.4245 57.3691C88.1942 68.2193 72.3916 84.9223 65.8635 82.0859C59.3353 79.2496 59.5604 80.5552 43.3527 57.8643Z" stroke="#66F818" stroke-width="0.12734"/>
</g>
<path d="M80.4437 46.8917C86.3505 52.7426 91.0561 59.7824 93.0356 66.5271L93.2186 67.1796C95.0749 74.107 93.1284 80.0226 89.1258 83.6813C85.247 87.2266 79.4236 88.6655 73.218 86.8377L72.6158 86.6499L72.6089 86.6485C65.6663 84.7879 58.6185 80.2857 52.8389 74.5062C47.24 68.9072 42.8406 62.1181 40.8796 55.3874L40.6973 54.7369L40.6966 54.7334L40.515 54.085C38.7478 47.4153 40.1597 41.6218 43.6541 37.8934C47.1478 34.1659 52.7438 32.4805 59.3928 34.0678L60.0398 34.2315C66.9817 36.0919 74.3464 40.8521 80.4437 46.8917Z" fill="white" fill-opacity="0.5" stroke="url(#paint1_linear_2006_2233)" stroke-width="0.254681"/>
<circle cx="26.1291" cy="26.1291" r="25.9655" transform="matrix(0.965916 0.258856 0.258856 0.965916 35.9688 27.3716)" fill="white" fill-opacity="0.5" stroke="url(#paint2_linear_2006_2233)" stroke-width="0.327109"/>
<g filter="url(#filter4_i_2006_2233)">
<path d="M63.5082 62.0157C64.1536 64.4238 66.5345 66.8592 68.8184 67.4712L73.4855 68.722C75.4716 69.2542 76.6329 67.9985 76.0674 65.8884C75.4619 63.6292 74.2494 62.5439 72.645 61.63L64.4739 57.0208C62.8695 56.1069 61.6636 55.0464 61.0515 52.7625C60.4927 50.6771 61.6473 49.3966 63.6333 49.9288L68.3005 51.1796C70.5844 51.7917 72.9653 54.2271 73.6107 56.6351" fill="#C1ED45"/>
<path d="M63.5082 62.0157C64.1536 64.4238 66.5345 66.8592 68.8184 67.4712L73.4855 68.722C75.4716 69.2542 76.6329 67.9985 76.0674 65.8884C75.4619 63.6292 74.2494 62.5439 72.645 61.63L64.4739 57.0208C62.8695 56.1069 61.6636 55.0464 61.0515 52.7625C60.4927 50.6771 61.6473 49.3966 63.6333 49.9288L68.3005 51.1796C70.5844 51.7917 72.9653 54.2271 73.6107 56.6351" stroke="#66F818" stroke-width="3.16427" stroke-linecap="round" stroke-linejoin="round"/>
<path d="M65.5557 48.1631L71.5433 70.506L65.5557 48.1631Z" fill="#C1ED45"/>
<path d="M65.5557 48.1631L71.5433 70.506" stroke="#66F818" stroke-width="3.16427" stroke-linecap="round" stroke-linejoin="round"/>
</g>
<defs>
<filter id="filter0_d_2006_2233" x="13.4128" y="34.5962" width="71.8726" height="74.0416" filterUnits="userSpaceOnUse" color-interpolation-filters="sRGB">
<feFlood flood-opacity="0" result="BackgroundImageFix"/>
<feColorMatrix in="SourceAlpha" type="matrix" values="0 0 0 0 0 0 0 0 0 0 0 0 0 0 0 0 0 0 127 0" result="hardAlpha"/>
<feOffset dy="10.9036"/>
<feGaussianBlur stdDeviation="4.36145"/>
<feComposite in2="hardAlpha" operator="out"/>
<feColorMatrix type="matrix" values="0 0 0 0 0.814128 0 0 0 0 1 0 0 0 0 0.343982 0 0 0 0.5 0"/>
<feBlend mode="normal" in2="BackgroundImageFix" result="effect1_dropShadow_2006_2233"/>
<feBlend mode="normal" in="SourceGraphic" in2="effect1_dropShadow_2006_2233" result="shape"/>
</filter>
<filter id="filter1_d_2006_2233" x="30.4372" y="29.6085" width="61.8551" height="70.4332" filterUnits="userSpaceOnUse" color-interpolation-filters="sRGB">
<feFlood flood-opacity="0" result="BackgroundImageFix"/>
<feColorMatrix in="SourceAlpha" type="matrix" values="0 0 0 0 0 0 0 0 0 0 0 0 0 0 0 0 0 0 127 0" result="hardAlpha"/>
<feOffset dy="6.87638"/>
<feGaussianBlur stdDeviation="5.34829"/>
<feComposite in2="hardAlpha" operator="out"/>
<feColorMatrix type="matrix" values="0 0 0 0 0.188235 0 0 0 0 1 0 0 0 0 0.215294 0 0 0 0.7 0"/>
<feBlend mode="normal" in2="BackgroundImageFix" result="effect1_dropShadow_2006_2233"/>
<feBlend mode="normal" in="SourceGraphic" in2="effect1_dropShadow_2006_2233" result="shape"/>
</filter>
<filter id="filter4_i_2006_2233" x="59.3301" y="46.5806" width="18.4609" height="25.7625" filterUnits="userSpaceOnUse" color-interpolation-filters="sRGB">
<feFlood flood-opacity="0" result="BackgroundImageFix"/>
<feBlend mode="normal" in="SourceGraphic" in2="BackgroundImageFix" result="shape"/>
<feColorMatrix in="SourceAlpha" type="matrix" values="0 0 0 0 0 0 0 0 0 0 0 0 0 0 0 0 0 0 127 0" result="hardAlpha"/>
<feOffset dy="0.59206"/>
<feGaussianBlur stdDeviation="0.12734"/>
<feComposite in2="hardAlpha" operator="arithmetic" k2="-1" k3="1"/>
<feColorMatrix type="matrix" values="0 0 0 0 1 0 0 0 0 1 0 0 0 0 1 0 0 0 1 0"/>
<feBlend mode="normal" in2="shape" result="effect1_innerShadow_2006_2233"/>
</filter>
<linearGradient id="paint0_linear_2006_2233" x1="4.528" y1="21.2563" x2="27.4704" y2="42.7739" gradientUnits="userSpaceOnUse">
<stop stop-color="white" stop-opacity="0.43"/>
<stop offset="0.846595" stop-color="white" stop-opacity="0.44"/>
<stop offset="1" stop-color="white" stop-opacity="0"/>
</linearGradient>
<linearGradient id="paint1_linear_2006_2233" x1="50.2117" y1="39.0865" x2="44.1182" y2="67.4776" gradientUnits="userSpaceOnUse">
<stop stop-color="white" stop-opacity="0"/>
<stop offset="0.846595" stop-color="white" stop-opacity="0.06"/>
<stop offset="1" stop-color="white" stop-opacity="0.23"/>
</linearGradient>
<linearGradient id="paint2_linear_2006_2233" x1="4.528" y1="21.2563" x2="27.4704" y2="42.7739" gradientUnits="userSpaceOnUse">
<stop stop-color="white" stop-opacity="0.43"/>
<stop offset="0.846595" stop-color="white" stop-opacity="0.44"/>
<stop offset="1" stop-color="white" stop-opacity="0"/>
</linearGradient>
</defs>
</svg>
