<svg width="20" height="20" viewBox="0 0 20 20" fill="none" xmlns="http://www.w3.org/2000/svg">
<path fill-rule="evenodd" clip-rule="evenodd" d="M17.3438 12.5C17.8184 12.5 18.2031 12.8848 18.2031 13.3594V15.1562C18.2031 15.9643 17.8821 16.7393 17.3107 17.3107C16.7393 17.8821 15.9643 18.2031 15.1562 18.2031H13.3594C12.8848 18.2031 12.5 17.8184 12.5 17.3438C12.5 16.8691 12.8848 16.4844 13.3594 16.4844H15.1562C15.5085 16.4844 15.8463 16.3444 16.0954 16.0954C16.3444 15.8463 16.4844 15.5085 16.4844 15.1562V13.3594C16.4844 12.8848 16.8691 12.5 17.3438 12.5Z" fill="#787876"/>
<path fill-rule="evenodd" clip-rule="evenodd" d="M12.5 2.65625C12.5 2.18163 12.8848 1.79688 13.3594 1.79688H15.1562C15.9643 1.79688 16.7393 2.11788 17.3107 2.68928C17.8821 3.26068 18.2031 4.03567 18.2031 4.84375V6.64062C18.2031 7.11524 17.8184 7.5 17.3438 7.5C16.8691 7.5 16.4844 7.11524 16.4844 6.64062V4.84375C16.4844 4.49151 16.3444 4.1537 16.0954 3.90462C15.8463 3.65555 15.5085 3.51562 15.1562 3.51562H13.3594C12.8848 3.51562 12.5 3.13087 12.5 2.65625Z" fill="#787876"/>
<path fill-rule="evenodd" clip-rule="evenodd" d="M2.65625 12.5C3.13087 12.5 3.51562 12.8848 3.51562 13.3594V15.1562C3.51562 15.5085 3.65555 15.8463 3.90462 16.0954C4.1537 16.3444 4.49151 16.4844 4.84375 16.4844H6.64062C7.11524 16.4844 7.5 16.8691 7.5 17.3438C7.5 17.8184 7.11524 18.2031 6.64062 18.2031H4.84375C4.03567 18.2031 3.26068 17.8821 2.68928 17.3107C2.11788 16.7393 1.79688 15.9643 1.79688 15.1562V13.3594C1.79688 12.8848 2.18163 12.5 2.65625 12.5Z" fill="#787876"/>
<path fill-rule="evenodd" clip-rule="evenodd" d="M4.84375 3.51562C4.49151 3.51562 4.1537 3.65555 3.90462 3.90462C3.65555 4.1537 3.51562 4.49151 3.51562 4.84375V6.64062C3.51562 7.11524 3.13087 7.5 2.65625 7.5C2.18163 7.5 1.79688 7.11524 1.79688 6.64062V4.84375C1.79688 4.03567 2.11788 3.26068 2.68928 2.68928C3.26068 2.11788 4.03567 1.79688 4.84375 1.79688H6.64062C7.11524 1.79688 7.5 2.18163 7.5 2.65625C7.5 3.13087 7.11524 3.51562 6.64062 3.51562H4.84375Z" fill="#787876"/>
</svg>
