<svg width="20" height="20" viewBox="0 0 20 20" fill="none" xmlns="http://www.w3.org/2000/svg">
<path d="M10.2172 3.95625C10.159 3.90062 10.0817 3.86957 10.0012 3.86957C9.92071 3.86957 9.84333 3.90062 9.78517 3.95625L2.59377 10.8262C2.56322 10.8554 2.53893 10.8905 2.52234 10.9294C2.50576 10.9682 2.49723 11.0101 2.49728 11.0523L2.49611 17.5C2.49611 17.8315 2.6278 18.1495 2.86223 18.3839C3.09665 18.6183 3.41459 18.75 3.74611 18.75H7.50002C7.66578 18.75 7.82475 18.6842 7.94196 18.5669C8.05917 18.4497 8.12502 18.2908 8.12502 18.125V12.8125C8.12502 12.7296 8.15794 12.6501 8.21654 12.5915C8.27515 12.5329 8.35464 12.5 8.43752 12.5H11.5625C11.6454 12.5 11.7249 12.5329 11.7835 12.5915C11.8421 12.6501 11.875 12.7296 11.875 12.8125V18.125C11.875 18.2908 11.9409 18.4497 12.0581 18.5669C12.1753 18.6842 12.3343 18.75 12.5 18.75H16.2524C16.5839 18.75 16.9018 18.6183 17.1362 18.3839C17.3707 18.1495 17.5024 17.8315 17.5024 17.5V11.0523C17.5024 11.0101 17.4939 10.9682 17.4773 10.9294C17.4607 10.8905 17.4364 10.8554 17.4059 10.8262L10.2172 3.95625Z" fill="#787876"/>
<path d="M19.1762 9.53711L16.2543 6.7418V2.5C16.2543 2.33424 16.1885 2.17527 16.0713 2.05806C15.954 1.94085 15.7951 1.875 15.6293 1.875H13.7543C13.5886 1.875 13.4296 1.94085 13.3124 2.05806C13.1952 2.17527 13.1293 2.33424 13.1293 2.5V3.75L10.8668 1.58672C10.6551 1.37266 10.3402 1.25 10 1.25C9.66095 1.25 9.34689 1.37266 9.13517 1.58711L0.826577 9.53633C0.583609 9.7707 0.55314 10.1562 0.774234 10.4102C0.829753 10.4742 0.897734 10.5264 0.974038 10.5633C1.05034 10.6003 1.13337 10.6214 1.21808 10.6253C1.30278 10.6291 1.38739 10.6157 1.46675 10.5859C1.54611 10.556 1.61856 10.5103 1.6797 10.4516L9.78517 2.70625C9.84333 2.65062 9.92071 2.61957 10.0012 2.61957C10.0817 2.61957 10.159 2.65062 10.2172 2.70625L18.3235 10.4516C18.4429 10.5661 18.6028 10.6286 18.7682 10.6253C18.9336 10.6221 19.091 10.5534 19.2059 10.4344C19.4457 10.1859 19.4258 9.77578 19.1762 9.53711Z" fill="#787876"/>
</svg>
