<svg width="85" height="81" viewBox="0 0 85 81" fill="none" xmlns="http://www.w3.org/2000/svg">
<g clip-path="url(#clip0_2006_1324)">
<mask id="mask0_2006_1324" style="mask-type:luminance" maskUnits="userSpaceOnUse" x="0" y="0" width="85" height="81">
<path d="M0 81H85V7.62939e-06H0V81Z" fill="white"/>
</mask>
<g mask="url(#mask0_2006_1324)">
<mask id="mask1_2006_1324" style="mask-type:luminance" maskUnits="userSpaceOnUse" x="-113" y="-105" width="389" height="548">
<path d="M-112.076 -104.744H275.842V442.464H-112.076V-104.744Z" fill="white"/>
</mask>
<g mask="url(#mask1_2006_1324)">
<path d="M8.96973 10.4483L40.3394 27.3132L71.709 9.58381L43.9867 31.9813L41.1005 63.4805L37.3834 32.4389L8.96973 10.4483Z" fill="#231F20"/>
</g>
<path d="M31.7324 69.6128H30.8491C30.9043 68.6007 30.932 67.4568 30.932 66.181C30.932 64.9419 30.8875 63.9283 30.7985 63.1402L31.7324 63.0942C31.6741 63.9283 31.645 64.9573 31.645 66.181C31.645 67.4414 31.6741 68.5854 31.7324 69.6128ZM38.4811 66.526C38.4811 67.5166 38.1912 68.3094 37.6116 68.9043C37.032 69.4963 36.3618 69.7922 35.6013 69.7922C34.8713 69.7922 34.2304 69.5208 33.6783 68.978C33.1294 68.432 32.8549 67.696 32.8549 66.7698C32.8549 65.7669 33.1447 64.9726 33.7243 64.3868C34.304 63.798 34.9741 63.5036 35.7347 63.5036C36.4646 63.5036 37.104 63.7765 37.653 64.3224C38.205 64.8653 38.4811 65.5998 38.4811 66.526ZM37.6622 66.6318C37.6622 65.8405 37.4537 65.2287 37.0366 64.7963C36.6225 64.3608 36.1441 64.143 35.6013 64.143C35.0983 64.143 34.6505 64.3715 34.258 64.8285C33.8654 65.2854 33.6691 65.8957 33.6691 66.6594C33.6691 67.4537 33.8777 68.0686 34.2948 68.5041C34.7149 68.9365 35.1949 69.1528 35.7347 69.1528C36.2376 69.1528 36.6839 68.9212 37.0734 68.4581C37.4659 67.995 37.6622 67.3862 37.6622 66.6318ZM44.2682 69.4886C43.7653 69.6542 43.2577 69.737 42.7455 69.737C41.6691 69.737 40.8563 69.4502 40.3074 68.8767C39.7615 68.3002 39.4885 67.5887 39.4885 66.7422C39.4885 65.8865 39.786 65.1398 40.381 64.5019C40.976 63.8609 41.8009 63.5404 42.8559 63.5404C43.2362 63.5404 43.5966 63.5849 43.937 63.6738L43.822 64.4374C43.316 64.3148 42.9081 64.2534 42.5983 64.2534C41.8561 64.2534 41.2872 64.4789 40.8916 64.9297C40.4991 65.3774 40.3028 65.9341 40.3028 66.5996C40.3028 67.2682 40.5282 67.8539 40.979 68.3569C41.4329 68.8599 42.0724 69.1114 42.8973 69.1114C43.0476 69.1114 43.273 69.0884 43.5736 69.0424C43.5215 68.7234 43.4954 68.3523 43.4954 67.9291C43.4954 67.5733 43.4739 67.2252 43.431 66.8848H44.2682C44.2437 67.2896 44.2314 67.7175 44.2314 68.1683C44.2314 68.3615 44.2437 68.8016 44.2682 69.4886ZM46.6236 69.6128H45.7495C45.7955 68.6191 45.8185 67.5703 45.8185 66.4662C45.8185 65.3805 45.7955 64.4328 45.7495 63.6232H46.6236C46.5807 64.4604 46.5592 65.4081 46.5592 66.4662C46.5592 67.5764 46.5807 68.6253 46.6236 69.6128ZM52.9628 69.6128H51.9554C51.9554 69.5791 51.7805 69.3122 51.4309 68.8123C51.0261 68.2327 50.6565 67.7543 50.3222 67.377C49.8683 66.8649 49.5325 66.6088 49.3148 66.6088H49.1722C49.1722 67.3264 49.1875 68.3278 49.2182 69.6128H48.3533C48.3993 68.6621 48.4223 67.6132 48.4223 66.4662C48.4223 65.3866 48.3993 64.439 48.3533 63.6232H49.2182C49.1875 64.439 49.1722 65.267 49.1722 66.1074H49.278C49.4467 66.1074 49.8668 65.7163 50.5385 64.9343C51.2132 64.1522 51.5505 63.7152 51.5505 63.6232H52.5074C52.5074 63.7152 52.1792 64.0955 51.5229 64.7641C50.8697 65.4296 50.3836 65.8773 50.0646 66.1074V66.1534C50.4173 66.2883 51.0046 66.8971 51.8265 67.9797C52.5841 68.9764 52.9628 69.5208 52.9628 69.6128Z" fill="#231F20"/>
</g>
</g>
<defs>
<clipPath id="clip0_2006_1324">
<rect width="85" height="81" fill="white"/>
</clipPath>
</defs>
</svg>
