<svg width="68" height="64" viewBox="0 0 68 64" fill="none" xmlns="http://www.w3.org/2000/svg">
<path d="M34.7819 10.2425C34.5726 10.0422 34.294 9.93046 34.0043 9.93046C33.7145 9.93046 33.436 10.0422 33.2266 10.2425L7.33755 34.9742C7.22761 35.0794 7.14014 35.2058 7.08043 35.3457C7.02073 35.4857 6.99004 35.6363 6.99021 35.7885L6.98599 59C6.98599 60.1935 7.4601 61.3381 8.30401 62.182C9.14793 63.0259 10.2925 63.5 11.486 63.5H25.0001C25.5968 63.5 26.1691 63.263 26.591 62.841C27.013 62.4191 27.2501 61.8468 27.2501 61.25V42.125C27.2501 41.8266 27.3686 41.5405 27.5796 41.3295C27.7905 41.1185 28.0767 41 28.3751 41H39.6251C39.9234 41 40.2096 41.1185 40.4206 41.3295C40.6315 41.5405 40.7501 41.8266 40.7501 42.125V61.25C40.7501 61.8468 40.9871 62.4191 41.4091 62.841C41.831 63.263 42.4033 63.5 43.0001 63.5H56.5085C57.702 63.5 58.8466 63.0259 59.6905 62.182C60.5344 61.3381 61.0085 60.1935 61.0085 59V35.7885C61.0087 35.6363 60.978 35.4857 60.9183 35.3457C60.8586 35.2058 60.7711 35.0794 60.6611 34.9742L34.7819 10.2425Z" fill="#BECC6F"/>
<path d="M67.0343 30.3336L56.5155 20.2705V5C56.5155 4.40326 56.2785 3.83097 55.8565 3.40901C55.4346 2.98705 54.8623 2.75 54.2655 2.75H47.5155C46.9188 2.75 46.3465 2.98705 45.9245 3.40901C45.5026 3.83097 45.2655 4.40326 45.2655 5V9.5L37.1205 1.71219C36.3583 0.941562 35.2249 0.5 34.0001 0.5C32.7794 0.5 31.6488 0.941563 30.8866 1.71359L0.975678 30.3308C0.100991 31.1745 -0.00869671 32.5625 0.787241 33.4766C0.987113 33.7073 1.23184 33.8949 1.50654 34.0281C1.78123 34.1612 2.08014 34.237 2.38508 34.251C2.69002 34.2649 2.9946 34.2167 3.2803 34.1092C3.566 34.0017 3.82683 33.8371 4.04693 33.6256L33.2266 5.7425C33.436 5.54222 33.7145 5.43044 34.0043 5.43044C34.294 5.43044 34.5726 5.54222 34.7819 5.7425L63.9644 33.6256C64.3943 34.0379 64.9701 34.2628 65.5656 34.2512C66.1611 34.2396 66.7277 33.9924 67.1411 33.5637C68.0046 32.6694 67.9329 31.1928 67.0343 30.3336Z" fill="#BECC6F"/>
</svg>
