<svg width="64" height="50" viewBox="0 0 64 50" fill="none" xmlns="http://www.w3.org/2000/svg">
<path d="M56.75 21.4422C55.3316 20.8195 53.7991 20.4987 52.25 20.5H11.75C10.201 20.4985 8.66864 20.8189 7.25 21.4408C5.24497 22.3176 3.53882 23.7596 2.34007 25.5904C1.14132 27.4212 0.501916 29.5616 0.5 31.75V47.5C0.5 48.0967 0.737053 48.669 1.15901 49.091C1.58097 49.513 2.15326 49.75 2.75 49.75C3.34674 49.75 3.91903 49.513 4.34099 49.091C4.76295 48.669 5 48.0967 5 47.5V46.375C5.00365 46.0778 5.12335 45.7937 5.33354 45.5835C5.54373 45.3733 5.82776 45.2537 6.125 45.25H57.875C58.1722 45.2537 58.4563 45.3733 58.6665 45.5835C58.8767 45.7937 58.9964 46.0778 59 46.375V47.5C59 48.0967 59.2371 48.669 59.659 49.091C60.081 49.513 60.6533 49.75 61.25 49.75C61.8467 49.75 62.419 49.513 62.841 49.091C63.2629 48.669 63.5 48.0967 63.5 47.5V31.75C63.4978 29.5619 62.8583 27.4218 61.6595 25.5912C60.4608 23.7607 58.7548 22.3189 56.75 21.4422Z" fill="#BECC6F"/>
<path d="M48.875 0.25H15.125C13.0364 0.25 11.0334 1.07969 9.55653 2.55653C8.07969 4.03338 7.25 6.03642 7.25 8.125V18.25C7.25006 18.3372 7.27038 18.4231 7.30936 18.5011C7.34833 18.5791 7.40489 18.6469 7.47458 18.6993C7.54426 18.7516 7.62516 18.7871 7.7109 18.8028C7.79663 18.8186 7.88485 18.8142 7.96859 18.79C9.19689 18.4307 10.4702 18.2489 11.75 18.25H12.3448C12.4837 18.2509 12.6179 18.2004 12.7218 18.1082C12.8256 18.0161 12.8917 17.8887 12.9073 17.7508C13.0301 16.6514 13.5535 15.6357 14.3776 14.8977C15.2017 14.1597 16.2688 13.7511 17.375 13.75H25.25C26.357 13.7501 27.4251 14.1582 28.2501 14.8963C29.0751 15.6344 29.5991 16.6506 29.7219 17.7508C29.7375 17.8887 29.8036 18.0161 29.9074 18.1082C30.0113 18.2004 30.1455 18.2509 30.2844 18.25H33.7241C33.8629 18.2509 33.9972 18.2004 34.101 18.1082C34.2049 18.0161 34.2709 17.8887 34.2866 17.7508C34.4092 16.6521 34.932 15.637 35.7552 14.8991C36.5784 14.1612 37.6445 13.7522 38.75 13.75H46.625C47.732 13.7501 48.8001 14.1582 49.6251 14.8963C50.4501 15.6344 50.9741 16.6506 51.0969 17.7508C51.1125 17.8887 51.1786 18.0161 51.2824 18.1082C51.3863 18.2004 51.5205 18.2509 51.6594 18.25H52.25C53.5298 18.2494 54.8032 18.4317 56.0314 18.7914C56.1153 18.8156 56.2036 18.82 56.2894 18.8042C56.3753 18.7884 56.4563 18.7528 56.526 18.7003C56.5957 18.6477 56.6522 18.5797 56.6911 18.5016C56.73 18.4234 56.7502 18.3373 56.75 18.25V8.125C56.75 6.03642 55.9203 4.03338 54.4435 2.55653C52.9666 1.07969 50.9636 0.25 48.875 0.25Z" fill="#BECC6F"/>
</svg>
