<svg width="60" height="60" viewBox="0 0 60 60" fill="none" xmlns="http://www.w3.org/2000/svg">
<path fill-rule="evenodd" clip-rule="evenodd" d="M56.4375 39C58.1461 39 59.5312 40.3851 59.5312 42.0938V48.5625C59.5312 51.4716 58.3756 54.2615 56.3186 56.3186C54.2615 58.3756 51.4716 59.5312 48.5625 59.5312H42.0938C40.3851 59.5312 39 58.1461 39 56.4375C39 54.7289 40.3851 53.3438 42.0938 53.3438H48.5625C49.8306 53.3438 51.0467 52.84 51.9434 51.9434C52.84 51.0467 53.3438 49.8306 53.3438 48.5625V42.0938C53.3438 40.3851 54.7289 39 56.4375 39Z" fill="#BECC6F"/>
<path fill-rule="evenodd" clip-rule="evenodd" d="M39 3.5625C39 1.85387 40.3851 0.46875 42.0938 0.46875H48.5625C51.4716 0.46875 54.2615 1.62438 56.3186 3.68142C58.3756 5.73846 59.5312 8.52841 59.5312 11.4375V17.9062C59.5312 19.6149 58.1461 21 56.4375 21C54.7289 21 53.3438 19.6149 53.3438 17.9062V11.4375C53.3438 10.1694 52.84 8.9533 51.9434 8.05665C51.0467 7.15999 49.8306 6.65625 48.5625 6.65625H42.0938C40.3851 6.65625 39 5.27113 39 3.5625Z" fill="#BECC6F"/>
<path fill-rule="evenodd" clip-rule="evenodd" d="M3.5625 39C5.27113 39 6.65625 40.3851 6.65625 42.0938V48.5625C6.65625 49.8306 7.15999 51.0467 8.05665 51.9434C8.9533 52.84 10.1694 53.3438 11.4375 53.3438H17.9062C19.6149 53.3438 21 54.7289 21 56.4375C21 58.1461 19.6149 59.5312 17.9062 59.5312H11.4375C8.52841 59.5312 5.73846 58.3756 3.68142 56.3186C1.62438 54.2615 0.46875 51.4716 0.46875 48.5625V42.0938C0.46875 40.3851 1.85387 39 3.5625 39Z" fill="#BECC6F"/>
<path fill-rule="evenodd" clip-rule="evenodd" d="M11.4375 6.65625C10.1694 6.65625 8.95331 7.15999 8.05665 8.05665C7.15999 8.95331 6.65625 10.1694 6.65625 11.4375V17.9062C6.65625 19.6149 5.27113 21 3.5625 21C1.85387 21 0.46875 19.6149 0.46875 17.9062V11.4375C0.46875 8.52841 1.62438 5.73846 3.68142 3.68142C5.73846 1.62438 8.52841 0.46875 11.4375 0.46875H17.9062C19.6149 0.46875 21 1.85387 21 3.5625C21 5.27113 19.6149 6.65625 17.9062 6.65625H11.4375Z" fill="#BECC6F"/>
</svg>
